<svg xmlns="http://www.w3.org/2000/svg" viewBox="0 0 16 43"><path fill="#efefef" fill-rule="nonzero" d="m12.5419926.142578 1.9873047 1.98730469c.4475911.44759114.7788086.87280273.9936523 1.27563476.2148438.40283203.3222656.8190918.3222656 1.2487793 0 .51920573-.1790364.99365234-.5371093 1.42333984-.3580729.4296875-.913086.85042318-1.6650391 1.26220703l-2.7124023 1.47705079-1.85302738-2.01416016a509976.79996793 509976.79996793 0 0 0-.10742187-.10742187c-.84147135-.91308594-1.26220703-1.70084636-1.26220703-2.36328126 0-.53710937.17008463-1.02945963.5102539-1.47705078.34016928-.44759114.859375-.859375 1.55761719-1.23535156L12.5419926.142578Zm.9936523 34.6435547.913086 2.0947265c-2.273763 2.1305339-4.00146487 3.5628256-5.18310549 4.296875-1.18164063.7340495-2.27376302 1.1010743-3.27636719 1.1010743-1.0921224 0-1.9514974-.3849284-2.578125-1.1547852-.62662761-.7698568-.93994141-1.8351237-.93994141-3.1958008 0-1.1637369.49235026-3.7060547 1.47705078-7.6269531.12532552-.5013021.21484375-.8683268.26855469-1.1010742.50130208-1.9873047.87727865-3.5986328 1.12792969-4.8339844.25065104-1.2353516.37597656-2.121582.37597656-2.6586914 0-.4475911-.1163737-.81014-.34912109-1.0876465-.2327474-.2775065-.53710938-.4162597-.91308594-.4162597-.30436198 0-.68929036.09847-1.15478516.2954101-.46549479.1969401-1.07421875.5281576-1.82617187.9936524L.591309 19.6127928l3.70605469-2.4169921c.84147135-.5729167 1.63370768-1.0026042 2.37670898-1.2890625.7430013-.2864584 1.40991211-.4296875 2.00073242-.4296875 1.0921224 0 1.96492511.3491211 2.61840821 1.0473632.6534831.6982422.9802246 1.6381836.9802246 2.8198243 0 .8772786-.402832 2.9182942-1.2084961 6.1230468-.3222656 1.2711589-.56396483 2.2737631-.72509764 3.0078125-.50130209 2.0589193-.85489909 3.6344401-1.06079102 4.7265625-.20589193 1.0921224-.30883789 1.8798828-.30883789 2.3632813 0 .5013021.08951823.8907064.26855469 1.1682129.17903646.2775065.43863932.4162597.77880859.4162597s.77880857-.1790364 1.31591797-.5371093c.5371094-.358073 1.2711589-.9667969 2.2021484-1.8261719Z" /></svg>