<svg xmlns="http://www.w3.org/2000/svg" viewBox="0 0 40 40"><path fill="#efefef" fill-rule="nonzero" d="M36.4585482 24.6982333c-2.0668325 7.7512368-9.1142844 13.4756184-17.515641 13.5114252C8.88714417 38.2511191.7035222 30.128622.66166825 20.0650178.62028458 10.00235577 8.73665808 1.81107192 18.7928914 1.77008252c9.7453855-.04004711 17.7338458 7.59010601 18.2544336 17.22025918l2.3287724-3.8360424C37.2090976 6.42402834 29.3109289-.0296819 19.9215371.009071 8.89796036.05559489-.00188137 9.03510019.04385 20.0669023c.04550082 11.0318022 9.01964507 19.9387515 20.0441624 19.8929355 11.0235767-.0455856 19.9224779-9.0260332 19.8767466-20.0583065-.0017659-.3071849-.0102307-.6138987-.0252793-.9206125l-3.4809315 5.7173145Z"/></svg>